<?xml version="1.0" encoding="UTF-8"?>
<svg id="b" xmlns="http://www.w3.org/2000/svg" version="1.1" viewBox="0 0 56.7 56.7">
  <!-- Generator: Adobe Illustrator 30.0.0, SVG Export Plug-In . SVG Version: 2.1.1 Build 123)  -->
  <defs>
    <style>
      .st0 {
        fill: #fff;
      }

      .st0, .st1 {
        fill-rule: evenodd;
      }

      .st1 {
        fill: #e4a039;
      }

      .st2 {
        fill: #f3d4a8;
      }
    </style>
  </defs>
  <rect class="st2" y="0" width="56.7" height="56.7" rx="11.7" ry="11.7"/>
  <g>
    <path class="st1" d="M41.6,36.2v-14.8c0-.4-.3-.8-.6-1.1l-12-7.3c-.2-.1-.5-.2-.8-.2s-.4.1-.6.2c-4.1,2.5-8.2,4.9-12.3,7.5-.2.2-.4.5-.4.9v14.2c0,.5.3.8.7,1.1,4.1,2.4,8.2,4.8,12.4,7.1.4,0,.7,0,1.1,0l12-6.3c.4-.2.7-.6.7-1.1h-.2Z"/>
    <path class="st0" d="M26.9,40.1s-.2,0-.3,0c-3-1.6-5.9-3.5-8.9-5.2h-.2v-11h.2l9.2,5.4v10.9h0Z"/>
    <polygon class="st0" points="28.2 26.9 18.9 21.5 28.2 15.8 37.6 21.5 28.2 26.9"/>
    <polygon class="st0" points="38.9 35.3 29.7 40.3 29.6 40.2 29.6 36.1 29.6 29.2 38.9 23.8 38.9 35.3"/>
  </g>
</svg>