<?xml version="1.0" encoding="UTF-8"?>
<svg id="b" xmlns="http://www.w3.org/2000/svg" version="1.1" viewBox="0 0 56.7 56.7">
  <!-- Generator: Adobe Illustrator 30.0.0, SVG Export Plug-In . SVG Version: 2.1.1 Build 123)  -->
  <defs>
    <style>
      .st0 {
        fill: #e4a039;
        fill-rule: evenodd;
      }

      .st1 {
        fill: #f3d4a8;
      }
    </style>
  </defs>
  <rect class="st1" y="0" width="56.7" height="56.7" rx="11.7" ry="11.7"/>
  <g id="d">
    <path id="e" class="st0" d="M30.2,15.7c0-.9-.8-1.5-1.9-1.5s-1.9.7-1.9,1.5v25.3c0,.9.8,1.5,1.9,1.5s1.9-.7,1.9-1.5V15.7ZM22.7,19c1,0,1.9.7,1.9,1.5v15.6c0,.9-.8,1.5-1.9,1.5s-1.9-.7-1.9-1.5v-15.6c0-.9.8-1.5,1.9-1.5ZM17,23.9c1,0,1.9.7,1.9,1.5v5.8c0,.9-.8,1.5-1.9,1.5s-1.9-.7-1.9-1.5v-5.8c0-.9.8-1.5,1.9-1.5ZM34.1,19c1,0,1.9.7,1.9,1.5v15.6c0,.9-.8,1.5-1.9,1.5s-1.9-.7-1.9-1.5v-15.6c0-.9.8-1.5,1.9-1.5ZM41.6,25.4c0-.9-.8-1.5-1.9-1.5s-1.9.7-1.9,1.5v5.8c0,.9.8,1.5,1.9,1.5s1.9-.7,1.9-1.5v-5.8Z"/>
  </g>
</svg>