<?xml version="1.0" encoding="UTF-8"?>
<svg id="b" data-name="Layer 2" xmlns="http://www.w3.org/2000/svg" viewBox="0 0 56.69 56.69">
  <defs>
    <style>
      .d {
        fill: #e4a039;
      }

      .d, .e {
        fill-rule: evenodd;
      }

      .e {
        fill: #fff;
      }

      .f {
        fill: #f4d9b0;
      }
    </style>
  </defs>
  <g id="c" data-name="b">
    <g>
      <rect class="f" x="1.25" y="1.25" width="54.19" height="54.19"/>
      <path class="d" d="M46.71,39.15v-20.35c-.04-.61-.37-1.14-.88-1.46L29.32,7.34c-.34-.19-.73-.31-1.13-.27-.28.03-.57.14-.81.27-5.62,3.43-11.29,6.77-16.87,10.27-.3.34-.48.74-.53,1.19v19.47c.05.67.36,1.15.91,1.52,5.68,3.23,11.26,6.64,16.98,9.78.5.16,1,.03,1.45-.21l16.42-8.7c.55-.33.91-.85.96-1.51Z"/>
      <path class="e" d="M26.48,44.53c-.12-.02-.25-.1-.36-.16-4.13-2.24-8.08-4.84-12.21-7.09l-.24-.18v-14.93l.24.08,12.57,7.29v14.99Z"/>
      <polygon class="e" points="28.35 26.36 15.47 18.88 28.31 11.08 41.22 18.88 28.35 26.36"/>
      <polygon class="e" points="43.02 37.89 30.27 44.69 30.21 44.63 30.21 38.98 30.22 29.55 43.02 22.13 43.02 37.89"/>
      <g>
        <path class="d" d="M12.45,1.15c0,.63-.51,1.13-1.13,1.13H3.58c-.36,0-.67.14-.91.38-.25.25-.38.56-.38.91v7.74c0,.63-.51,1.13-1.13,1.13s-1.15-.51-1.15-1.13V3.58c0-.96.37-1.86,1.05-2.53C1.72.37,2.62,0,3.58,0h7.74c.63,0,1.13.51,1.13,1.15Z"/>
        <path class="d" d="M56.69,45.37v7.74c0,.96-.37,1.86-1.05,2.53-.67.68-1.57,1.05-2.53,1.05h-7.74c-.63,0-1.13-.51-1.13-1.15s.51-1.13,1.13-1.13h7.74c.35,0,.67-.14.91-.38s.38-.56.38-.91v-7.74c0-.63.51-1.13,1.13-1.13s1.15.51,1.15,1.13Z"/>
      </g>
      <path class="d" d="M12.45,55.55c0,.64-.51,1.15-1.13,1.15H3.58c-.96,0-1.86-.37-2.53-1.05-.68-.67-1.05-1.57-1.05-2.53v-7.74c0-.63.51-1.13,1.15-1.13s1.13.51,1.13,1.13v7.74c0,.36.14.67.38.91s.56.38.91.38h7.74c.63,0,1.13.51,1.13,1.13Z"/>
      <path class="d" d="M56.69,3.58v7.74c0,.63-.52,1.13-1.15,1.13s-1.13-.51-1.13-1.13V3.58c0-.36-.14-.67-.38-.91-.25-.25-.56-.38-.91-.38h-7.74c-.63,0-1.13-.51-1.13-1.13s.51-1.15,1.13-1.15h7.74c.96,0,1.86.37,2.53,1.05.68.67,1.05,1.57,1.05,2.53Z"/>
    </g>
  </g>
</svg>