<?xml version="1.0" encoding="UTF-8"?>
<svg id="b" xmlns="http://www.w3.org/2000/svg" version="1.1" viewBox="0 0 56.7 56.7">
  <!-- Generator: Adobe Illustrator 30.0.0, SVG Export Plug-In . SVG Version: 2.1.1 Build 123)  -->
  <defs>
    <style>
      .st0 {
        fill: #e4a039;
      }

      .st1 {
        fill: #f4d9b0;
      }
    </style>
  </defs>
  <rect class="st1" x="0" y="0" width="56.7" height="56.7" rx="11.7" ry="11.7"/>
  <g>
    <rect class="st0" x="14.7" y="15.1" width="7.7" height="7.7" rx="1.3" ry="1.3"/>
    <rect class="st0" x="24.5" y="15.1" width="7.7" height="7.7" rx="1.3" ry="1.3"/>
    <rect class="st0" x="14.7" y="24.5" width="7.7" height="7.7" rx="1.3" ry="1.3"/>
    <rect class="st0" x="24.5" y="24.5" width="7.7" height="7.7" rx="1.3" ry="1.3"/>
    <rect class="st0" x="34.3" y="15.1" width="7.7" height="7.7" rx="1.3" ry="1.3"/>
    <rect class="st0" x="34.3" y="24.5" width="7.7" height="7.7" rx="1.3" ry="1.3"/>
    <rect class="st0" x="14.7" y="34" width="7.7" height="7.7" rx="1.3" ry="1.3"/>
    <rect class="st0" x="24.5" y="34" width="7.7" height="7.7" rx="1.3" ry="1.3"/>
    <rect class="st0" x="34.3" y="34" width="7.7" height="7.7" rx="1.3" ry="1.3"/>
  </g>
</svg>