<?xml version="1.0" encoding="UTF-8"?>
<svg id="b" xmlns="http://www.w3.org/2000/svg" version="1.1" viewBox="0 0 56.7 56.7">
  <!-- Generator: Adobe Illustrator 30.0.0, SVG Export Plug-In . SVG Version: 2.1.1 Build 123)  -->
  <defs>
    <style>
      .st0 {
        fill: #fff;
      }

      .st0, .st1 {
        fill-rule: evenodd;
      }

      .st1 {
        fill: #e4a039;
      }

      .st2 {
        fill: #f3d4a8;
      }
    </style>
  </defs>
  <rect class="st2" y="0" width="56.7" height="56.7" rx="11.7" ry="11.7"/>
  <g>
    <g id="d">
      <path id="e" class="st1" d="M19.9,15.2c-1.6,0-2.8,1.3-2.8,2.8v20.8c0,1.6,1.3,2.8,2.8,2.8h17c1.6,0,2.8-1.3,2.8-2.8v-13.2c0-.2,0-.5-.3-.7l-9.4-9.4c-.2-.2-.4-.3-.7-.3,0,0-9.4,0-9.4,0Z"/>
    </g>
    <path class="st0" d="M34.6,27.6c.5-.6.4-1.4-.2-1.8-.6-.5-1.4-.4-1.8.2l-6.2,7.7-2.5-1.9c-.6-.4-1.4-.3-1.8.3-.4.6-.3,1.4.3,1.8l3.5,2.6c.6.4,1.4.3,1.8-.2l7-8.7h0Z"/>
  </g>
</svg>