<?xml version="1.0" encoding="UTF-8"?>
<svg id="b" xmlns="http://www.w3.org/2000/svg" version="1.1" viewBox="0 0 56.7 56.7">
  <!-- Generator: Adobe Illustrator 30.0.0, SVG Export Plug-In . SVG Version: 2.1.1 Build 123)  -->
  <defs>
    <style>
      .st0 {
        fill: #fff;
      }

      .st1 {
        fill: #e4a039;
      }

      .st2 {
        fill: #e9b160;
      }

      .st3 {
        fill: #eec284;
      }

      .st4 {
        fill: #f3d4a8;
      }
    </style>
  </defs>
  <rect class="st4" y="0" width="56.7" height="56.7" rx="11.7" ry="11.7"/>
  <g>
    <rect class="st3" x="21.9" y="10.4" width="13.7" height="13.7" rx="2.2" ry="2.2"/>
    <rect class="st2" x="24.2" y="10.4" width="13.7" height="13.7" rx="2.2" ry="2.2"/>
    <rect class="st1" x="26.6" y="10.4" width="13.7" height="13.7" rx="2.2" ry="2.2"/>
    <rect class="st0" x="29" y="10.4" width="13.7" height="13.7" rx="2.2" ry="2.2"/>
    <g>
      <path class="st1" d="M17.1,42.4c.9.6,1.7,1.1,2.6,1.6,1.4.8,2.8,1.5,4.1,1.9.8.3,1.7.4,2.6.4s1.6,0,2.4-.3c3.9-1,7.2-2.6,8.9-3.4,1.2-.6,2-1.5,2.3-2.6,0-.5.2-1.1.3-1.6,0-1.2-.4-2.4-1.3-3.1-1-.8-2.3-1.1-3.5-.8h-.2c1.6-2.9,3-5.6,3.9-7.6,1-2.1.5-4.4-1.2-5.6-.4-.3-.8-.5-1.2-.7-1.9-.9-4.1-.2-5.4,1.7-.8,1.2-1.9,2.7-2.6,3.8-1.2-.5-3.5-1.2-5.9-1.7-2.9-.6-5.8,1-6.9,3.8-.9,2.2-1.5,4.5-1.9,6.8-.5,2.8.7,5.7,3.1,7.3h-.1Z"/>
      <path class="st0" d="M37.3,37.2c-.3-.2-.6-.4-1-.4h-.4c-1.7.4-2.9,1-2.9,1-.5.3-1.1.2-1.5-.2-.4-.4-.5-1-.2-1.5,2.3-3.9,4.2-7.8,5.5-10.3.4-.8.4-1.9-.4-2.4h0c-.3-.2-.5-.3-.8-.5-.9-.4-1.8.2-2.3.9-1,1.5-2.4,3.5-3,4.6-.3.5-1,.8-1.6.5,0,0-3.1-1.3-6.5-2-1.8-.4-3.4.6-4.1,2.3-.8,2-1.4,4.2-1.8,6.3-.3,1.9.5,3.7,2.1,4.8.8.5,1.6,1.1,2.5,1.5,1.3.7,2.5,1.3,3.7,1.8,1,.4,2.2.4,3.5,0,3.7-1,6.8-2.4,8.4-3.2.3-.2.9-.5,1-1.1,0-.4.2-.7.2-1.1s0-.8-.5-1.1h.1Z"/>
    </g>
  </g>
</svg>