<?xml version="1.0" encoding="UTF-8"?>
<svg id="b" xmlns="http://www.w3.org/2000/svg" version="1.1" viewBox="0 0 56.7 56.7">
  <!-- Generator: Adobe Illustrator 30.0.0, SVG Export Plug-In . SVG Version: 2.1.1 Build 123)  -->
  <defs>
    <style>
      .st0 {
        fill: #fff;
      }

      .st1, .st2 {
        fill: #e4a039;
      }

      .st2 {
        fill-rule: evenodd;
      }

      .st3 {
        fill: #f3d4a8;
      }
    </style>
  </defs>
  <rect class="st3" y="0" width="56.7" height="56.7" rx="11.7" ry="11.7"/>
  <g>
    <g id="d">
      <path id="e" class="st2" d="M30.4,39.1c-2.6,0-5.1-.8-7.1-2.1l-5.7,5.7c-1,1-2.7,1-3.7,0s-1-2.7,0-3.7l5.7-5.7c-1.4-2-2.1-4.5-2.1-7.1,0-7.2,5.8-13,13-13s13,5.8,13,13-5.8,13-13,13h0Z"/>
    </g>
    <circle class="st0" cx="30.4" cy="26.2" r="8.6"/>
    <path class="st1" d="M33.6,30.4h2.7l-4.1-9.3h-3.7l-4.1,9.3h2.7l.9-2.1h4.7l.9,2.1h0ZM28.8,26.5l1.4-3.2h.4l1.4,3.2h-3.2Z"/>
  </g>
</svg>