<?xml version="1.0" encoding="UTF-8"?>
<svg id="b" xmlns="http://www.w3.org/2000/svg" version="1.1" viewBox="0 0 56.7 56.7">
  <!-- Generator: Adobe Illustrator 30.0.0, SVG Export Plug-In . SVG Version: 2.1.1 Build 123)  -->
  <defs>
    <style>
      .st0 {
        fill: #fff;
      }

      .st1 {
        fill: #e4a039;
        fill-rule: evenodd;
      }

      .st2 {
        fill: #f3d4a8;
      }
    </style>
  </defs>
  <rect class="st2" y="0" width="56.7" height="56.7" rx="11.7" ry="11.7"/>
  <g>
    <g id="d">
      <path id="e" class="st1" d="M19.9,15.2c-1.6,0-2.8,1.3-2.8,2.8v20.8c0,1.6,1.3,2.8,2.8,2.8h17c1.6,0,2.8-1.3,2.8-2.8v-13.2c0-.2,0-.5-.3-.7l-9.4-9.4c-.2-.2-.4-.3-.7-.3,0,0-9.4,0-9.4,0Z"/>
    </g>
    <g>
      <g>
        <rect class="st0" x="24.4" y="25.7" width="11.3" height="2.3" rx=".7" ry=".7"/>
        <circle class="st0" cx="22.1" cy="26.8" r="1.3"/>
      </g>
      <g>
        <rect class="st0" x="24.4" y="34.3" width="11.3" height="2.3" rx=".7" ry=".7"/>
        <circle class="st0" cx="22.1" cy="35.4" r="1.3"/>
      </g>
      <g>
        <rect class="st0" x="24.4" y="30" width="11.3" height="2.3" rx=".7" ry=".7"/>
        <circle class="st0" cx="22.1" cy="31.1" r="1.3"/>
      </g>
    </g>
  </g>
</svg>