<?xml version="1.0" encoding="UTF-8"?>
<svg id="b" xmlns="http://www.w3.org/2000/svg" version="1.1" viewBox="0 0 56.7 56.7">
  <!-- Generator: Adobe Illustrator 30.0.0, SVG Export Plug-In . SVG Version: 2.1.1 Build 123)  -->
  <defs>
    <style>
      .st0 {
        fill: #fff;
      }

      .st1 {
        fill: #e4a039;
      }

      .st2 {
        fill: #f3d4a8;
      }
    </style>
  </defs>
  <rect class="st2" y="0" width="56.7" height="56.7" rx="11.7" ry="11.7"/>
  <g>
    <polygon class="st1" points="36 16.1 20.7 16.1 13.6 25.6 28.3 42.7 43.2 25.6 36 16.1"/>
    <polygon class="st0" points="39.4 24.6 33.9 24.6 30.2 18.6 34.9 18.6 39.4 24.6"/>
    <polygon class="st0" points="22.7 26.6 26.4 36.8 17.6 26.6 22.7 26.6"/>
    <polygon class="st0" points="24.8 26.6 31.9 26.6 28.3 36.2 24.8 26.6"/>
    <polygon class="st0" points="25.2 24.6 28.3 19.5 31.5 24.6 25.2 24.6"/>
    <polygon class="st0" points="34 26.6 39.2 26.6 30.2 36.8 34 26.6"/>
    <polygon class="st0" points="21.8 18.6 26.6 18.6 22.8 24.6 17.4 24.6 21.8 18.6"/>
  </g>
</svg>