<?xml version="1.0" encoding="UTF-8"?>
<svg id="b" xmlns="http://www.w3.org/2000/svg" version="1.1" viewBox="0 0 56.7 56.7">
  <!-- Generator: Adobe Illustrator 30.0.0, SVG Export Plug-In . SVG Version: 2.1.1 Build 123)  -->
  <defs>
    <style>
      .st0 {
        fill: #fff;
      }

      .st0, .st1 {
        fill-rule: evenodd;
      }

      .st1 {
        fill: #e4a039;
      }

      .st2 {
        fill: #f3d4a8;
      }
    </style>
  </defs>
  <rect class="st2" y="0" width="56.7" height="56.7" rx="11.7" ry="11.7"/>
  <g id="d">
    <g>
      <path class="st0" d="M19.8,31.8c-.4,0-.8,0-1.2,0v-12c0-.7.5-1.2,1.2-1.2h17.1c.7,0,1.2.5,1.2,1.2h0v7.3c-5.2.2-9,1.4-11.7,3.2,1,.4,2.1.9,3.2,1.5,1.7,1,3.4,2.5,4.6,4.4.3.6.2,1.3-.4,1.7-.6.3-1.3.2-1.7-.4-.9-1.5-2.3-2.7-3.8-3.5-1.5-.9-3-1.5-4.1-1.7-1.5-.3-3-.5-4.5-.5h0,0Z"/>
      <path class="st1" d="M16.2,19.8c0-2,1.6-3.7,3.7-3.7h17.1c2,0,3.7,1.6,3.7,3.7v7.9c0,.1,0,.2,0,.3,0,.1,0,.2,0,.3v8.5c0,2-1.6,3.7-3.7,3.7h-17.1c-2,0-3.7-1.6-3.7-3.7v-3.7c0,0,0-.2,0-.3,0,0,0-.2,0-.3,0,0,0-12.8,0-12.8ZM19.8,31.8c-.4,0-.8,0-1.2,0v-12c0-.7.5-1.2,1.2-1.2h17.1c.7,0,1.2.5,1.2,1.2h0v7.3c-5.2.2-9,1.4-11.7,3.2,1,.4,2.1.9,3.2,1.5,1.7,1,3.4,2.5,4.6,4.4.3.6.2,1.3-.4,1.7-.6.3-1.3.2-1.7-.4-.9-1.5-2.3-2.7-3.8-3.5-1.5-.9-3-1.5-4.1-1.7-1.5-.3-3-.5-4.5-.5h0,0ZM22.2,21.6c.5-.4,1.2-.6,1.9-.6s1.2.1,1.9.6c.7.5,1.2,1.3,1.2,2.5s-.5,2-1.2,2.5c-.5.4-1.2.6-1.9.6-.5,0-1.2-.1-1.9-.6-.7-.5-1.2-1.3-1.2-2.5s.5-2,1.2-2.5Z"/>
    </g>
  </g>
</svg>