<?xml version="1.0" encoding="UTF-8"?>
<svg id="b" xmlns="http://www.w3.org/2000/svg" version="1.1" viewBox="0 0 56.7 56.7">
  <!-- Generator: Adobe Illustrator 30.0.0, SVG Export Plug-In . SVG Version: 2.1.1 Build 123)  -->
  <defs>
    <style>
      .st0 {
        fill: #fff;
      }

      .st1 {
        fill: #e4a039;
      }

      .st2 {
        fill: #f3d4a8;
      }
    </style>
  </defs>
  <rect class="st2" y="0" width="56.7" height="56.7" rx="11.7" ry="11.7"/>
  <g>
    <g>
      <path class="st1" d="M40.7,13.8c-2.5-2.5-6.6-2.7-9.3-.5l9.7,9.7c2.2-2.7,2.1-6.7-.5-9.3h0Z"/>
      <path class="st1" d="M28.9,19l-12.5,15.7c-.2.2-.1.5,0,.7h.1c0,0-.6.7-.6.7-.2.2-.2.4,0,.6l.2.2-.9.9c-.8.8-1.2,1.9-1.2,3s.4,2.2,1.2,3c.8.8,1.9,1.2,3,1.2s2.2-.4,3-1.2l8.8-8.8c.7-.7,1.8-.7,2.4,0s.7,1.8,0,2.4l-5.1,5.1c-.4.4-.4,1.1,0,1.5s1.1.4,1.5,0l5.1-5.1c1.5-1.5,1.5-4,0-5.5s-4-1.5-5.5,0l-8.8,8.8c-.8.8-2.1.8-3,0-.4-.4-.6-.9-.6-1.5s.2-1.1.6-1.5l.9-.9.2.2c.2.2.4.2.6,0l.6-.6h.1c.2.3.5.3.7,0l15.7-12.5c1.6,0,3.3-.4,4.7-1.5l-9.7-9.7c-1.1,1.4-1.6,3-1.5,4.7h0Z"/>
    </g>
    <path class="st0" d="M30.8,25.3l-2.1,2.1c-.4.4-1.2.4-1.6,0s-.4-1.2,0-1.6l2.1-2.1c.4-.4,1.2-.4,1.6,0s.4,1.2,0,1.6Z"/>
  </g>
</svg>