<?xml version="1.0" encoding="UTF-8"?>
<svg id="b" xmlns="http://www.w3.org/2000/svg" version="1.1" viewBox="0 0 56.7 56.7">
  <!-- Generator: Adobe Illustrator 30.0.0, SVG Export Plug-In . SVG Version: 2.1.1 Build 123)  -->
  <defs>
    <style>
      .st0 {
        fill: #fff;
      }

      .st1 {
        fill: #e4a039;
        fill-rule: evenodd;
      }

      .st2 {
        fill: #f3d4a8;
      }
    </style>
  </defs>
  <rect class="st2" y="0" width="56.7" height="56.7" rx="11.7" ry="11.7"/>
  <g>
    <g id="d">
      <path id="e" class="st1" d="M34.1,16.4c-1.8-.9-3.8-1.3-5.7-1.3h0c-2.4,0-4.7.6-6.8,1.9-2.1,1.2-3.7,3-4.9,5.1-1.1,2.1-1.7,4.5-1.6,6.9.1,2.2.8,4.4,1.9,6.3l-1.9,5c-.1.3,0,.7.2.9.2.3.6.4.9.3l6.6-1.2c1.7.8,3.6,1.2,5.5,1.2s4-.4,5.8-1.3c1.8-.9,3.4-2.1,4.6-3.7s2.1-3.4,2.6-5.3c.4-1.9.5-4,0-5.9-.4-1.9-1.3-3.8-2.6-5.3-1.2-1.6-2.8-2.8-4.6-3.7h0Z"/>
    </g>
    <g>
      <rect class="st0" x="21.2" y="22.9" width="14.5" height="2.3" rx=".7" ry=".7"/>
      <rect class="st0" x="21.2" y="31.5" width="14.5" height="2.3" rx=".7" ry=".7"/>
      <rect class="st0" x="21.2" y="27.2" width="14.5" height="2.3" rx=".7" ry=".7"/>
    </g>
  </g>
</svg>