<?xml version="1.0" encoding="UTF-8"?>
<svg id="b" xmlns="http://www.w3.org/2000/svg" version="1.1" viewBox="0 0 56.7 56.7">
  <!-- Generator: Adobe Illustrator 30.0.0, SVG Export Plug-In . SVG Version: 2.1.1 Build 123)  -->
  <defs>
    <style>
      .st0 {
        fill: #fff;
      }

      .st1 {
        fill: #e4a039;
      }

      .st2 {
        fill: #f3d4a8;
      }
    </style>
  </defs>
  <rect class="st2" y="0" width="56.7" height="56.7" rx="11.7" ry="11.7"/>
  <g>
    <g id="d">
      <path class="st1" d="M41.6,21.4c0,.4,0,.7-.2,1.1,0,.4-.4.7-.6.9l-15.5,15.6c-.1,0-.3.2-.4.2l-7.3-7.3c0-.2.1-.3.2-.4l15.6-15.5c.3-.3.6-.5.9-.6.4-.1.7-.2,1.1-.2s.7,0,1.1.2c.4.1.7.4.9.6l3.3,3.4h0c.3.3.5.6.6.9,0,.4.2.7.2,1.1h0Z"/>
    </g>
    <polygon class="st0" points="17.6 32 16.1 37 19.8 40.7 24.9 39.3 17.6 32"/>
    <path class="st1" d="M16.1,37l-.2.9-.7,2.5c0,.3,0,.7.2.9s.6.3.9.2l2.6-.7.9-.2-3.7-3.6h0Z"/>
  </g>
</svg>